<?xml version="1.0" encoding="UTF-8" standalone="no"?>
<svg
   xmlns:dc="http://purl.org/dc/elements/1.1/"
   xmlns:cc="http://creativecommons.org/ns#"
   xmlns:rdf="http://www.w3.org/1999/02/22-rdf-syntax-ns#"
   xmlns:svg="http://www.w3.org/2000/svg"
   xmlns="http://www.w3.org/2000/svg"
   version="1.1"
   width="598"
   height="110"
   id="svg3039">
  <metadata
     id="metadata3045">
    <rdf:RDF>
      <cc:Work
         rdf:about="">
        <dc:format>image/svg+xml</dc:format>
        <dc:type
           rdf:resource="http://purl.org/dc/dcmitype/StillImage" />
        <dc:title></dc:title>
      </cc:Work>
    </rdf:RDF>
  </metadata>
  <defs
     id="defs3043" />
  <path
     d="m 152.38333,12.894069 35.71633,0 c 6.04795,0 11.33994,1.624115 15.876,5.404033 4.61993,3.780075 6.92993,8.65207 6.93,14.616 0,7.224057 -3.06606,11.4453 -9.198,16.65325 4.03194,2.352043 7.26593,4.669123 9.702,8.281083 2.51993,3.612033 3.77993,8.798879 3.78,13.16685 0,7.560017 -2.47807,15.210795 -7.434,19.494784 -4.95606,4.284001 -11.29805,6.426001 -19.026,6.426001 l -6.426,0 0,-23.70877 5.922,0 c 1.34395,0 2.43595,-0.377978 3.276,-1.134 0.92395,-0.839976 1.38595,-1.931975 1.386,-3.276 0,-1.091973 -0.42005,-2.015972 -1.26,-2.772 -0.75605,-0.83997 -1.72205,-1.25997 -2.898,-1.26 l -6.426,0 0,-21.196115 c 4.53596,0 6.80395,-1.684775 6.804,-3.857116 0,-0.97178 -0.54605,-2.093341 -1.638,-2.661091 -1.00804,-0.63861 -2.22604,-0.957941 -3.654,-0.957992 l -6.61033,0 0,60.823084 -24.822,0 0,-84.042001"
     id="path3836"
     style="fill:#7f8c8d;font-family:Blippo" />
  <path
     d="m 250.38117,36.770919 0,60.165151 -24.948,0 0,-84.042001 35.59536,0 c 7.55995,0 14.27995,2.646081 20.16,7.938 5.96393,5.208071 8.94593,11.550065 8.946,19.026 0,9.240048 -3.69607,16.71604 -11.088,22.428 l 14.49,34.65 -26.334,0 -11.03213,-24.563317 0,-22.875834 c 6.71996,0 9.01609,-2.267949 9.01613,-6.804 0,-2.015943 -0.75604,-3.485941 -2.268,-4.41 -1.42804,-1.007939 -3.19204,-1.511939 -5.292,-1.512 l -7.24536,0"
     id="path3838"
     style="fill:#7f8c8d;font-family:Blippo" />
  <path
     d="m 347.80491,45.528069 0,18.9 -16.38,0 c -1.26004,0 -2.26804,0.08403 -3.024,0.252 -0.75603,0.08403 -1.47003,0.462032 -2.142,1.134 -0.67203,0.67203 -1.00803,1.59603 -1.008,2.772 0,1.344027 0.41997,2.352026 1.26,3.024 0.92397,0.672025 1.76397,1.050024 2.52,1.134 0.83996,0.08402 2.01596,0.126024 3.528,0.126 l 16.758,0 0,24.066001 -20.538,0 c -8.4,0 -14.95202,-2.1 -19.656,-6.3 -5.29201,-4.787989 -7.93801,-10.709983 -7.938,-17.766 l 0,-37.044 c 0,-6.215933 2.43599,-11.591927 7.308,-16.128 4.87198,-4.535918 10.41597,-6.803916 16.632,-6.804 l 24.192,0 0,24.192 -16.758,0 c -3.78004,0 -5.67003,1.386058 -5.67,4.158 0,2.856053 2.05796,4.284051 6.174,4.284 l 14.742,0"
     id="path3840"
     style="fill:#7f8c8d;font-family:Blippo" />
  <path
     d="m 395.76797,53.677221 0,22.38606 -7.95163,0 0,20.872789 -25.63776,0 0,-55.812184 c 0,-8.525464 2.84863,-15.345873 8.54592,-20.461248 5.78229,-5.115239 13.52038,-7.672892 23.21429,-7.672968 8.92853,0 16.15642,2.743066 21.68368,8.22898 5.61218,5.411914 8.41837,12.046986 8.41837,19.905236 l 0,55.812184 -25.63776,0 0,-54.5992 c 0,-1.556785 -0.42521,-2.928281 -1.27551,-4.11449 -0.76535,-1.186107 -1.99834,-1.816253 -3.69898,-1.890442 -1.78576,0 -3.18881,0.593133 -4.20919,1.779239 -0.9354,1.112076 -1.40309,2.520638 -1.40306,4.225693 l 0,11.340351 7.95163,0"
     id="path3842"
     style="fill:#7f8c8d;font-family:Blippo" />
  <path
     d="m 479.18772,12.74966 c -11.91984,0 -22.34141,4.160642 -31.28125,12.5 -8.85472,8.25931 -13.28125,17.992638 -13.28125,29.21875 0,11.627127 4.30695,21.629333 12.90625,29.96875 8.68441,8.339439 19.22556,12.5 31.65625,12.5 7.40726,0 14.42141,-1.64984 21.0625,-4.9375 6.72611,-3.287657 12.05215,-7.820284 15.96875,-13.59375 3.91642,-5.613061 6.46418,-12.938852 7.65625,-22 l -25.9375,-0.59375 c -0.51809,9.708118 -8.67497,17.4375 -18.6875,17.4375 -10.34689,0 -18.71875,-8.242975 -18.71875,-18.40625 0,-10.163275 8.37186,-18.40625 18.71875,-18.40625 8.45304,0 15.60494,5.507798 17.9375,13.0625 l 26.4375,-1.625 c -2.55434,-10.504425 -7.76942,-18.991234 -15.6875,-25.40625 -7.91823,-6.495059 -17.51139,-9.71867 -28.75,-9.71875 z"
     id="path3844"
     style="fill:#7f8c8d;font-family:Blippo" />
  <path
     d="m 567.46489,41.279285 0,23.904784 -6.95095,0 0,31.752001 -24.92705,0 0,-84.042001 24.92705,0 0,28.385216 6.95095,0 m 30.16288,-28.385216 0,84.042001 -25.326,0 0,-84.042001 25.326,0"
     id="path3846"
     style="fill:#7f8c8d;font-family:Blippo" />
  <path
     d="m 46,7.876059 40.023222,23.623733 0,47.247468 L 46,102.371 5.977,78.74726 l 0,-47.247468 z"
     id="path3833"
     style="fill:none;stroke:#7f8c8d;stroke-width:11.5" />
</svg>
