<?xml version="1.0" encoding="utf-8"?>
<!-- Generator: Adobe Illustrator 28.0.0, SVG Export Plug-In . SVG Version: 6.00 Build 0)  -->
<svg version="1.1" xmlns="http://www.w3.org/2000/svg" xmlns:xlink="http://www.w3.org/1999/xlink" x="0px" y="0px"
	 viewBox="0 0 311.7 311.9" style="enable-background:new 0 0 311.7 311.9;" xml:space="preserve">
<style type="text/css">
	.st0{fill:#FFFFFF;stroke:#EB3300;stroke-width:6;stroke-linecap:round;stroke-linejoin:round;stroke-miterlimit:10;}
	.st1{fill:#EB3300;stroke:#EB3300;stroke-width:6;stroke-linejoin:round;stroke-miterlimit:10;}
	.st2{fill:none;stroke:#EB3300;stroke-width:6;stroke-linecap:round;stroke-linejoin:round;stroke-miterlimit:10;}
	.st3{fill:#FFFFFF;stroke:#FFFFFF;stroke-width:6;stroke-linecap:round;stroke-linejoin:round;stroke-miterlimit:10;}
	.st4{fill:#EB3300;stroke:#EB3300;stroke-width:5;stroke-linecap:round;stroke-linejoin:round;stroke-miterlimit:10;}
	.st5{fill:none;stroke:#FFFFFF;stroke-width:6;stroke-linecap:round;stroke-linejoin:round;stroke-miterlimit:10;}
	.st6{fill:#EB3300;}
</style>
<g id="Ebene_1">
</g>
<g id="Ebene_2">
	<g>
		<g>
			<path class="st6" d="M80.3,67.7l-1.8-29.3h5.4l0.8,17.6l0.3,5.5h0.4l2.5-16.7h5.7l2.5,16.7h0.4l0.3-5.4l0.8-17.7h5.2L101,67.7h-8
				l-2.1-16.2h-0.4l-2.1,16.2H80.3z"/>
			<path class="st6" d="M121.5,67.7l-1.8-7.1h-8l-1.8,7.1h-6.4l7.9-29.3h8.9l7.9,29.3H121.5z M115.8,44.4h-0.3l-2.9,11.1h6
				L115.8,44.4z"/>
			<path class="st6" d="M137.8,67.7h-6.2V38.4H143c1.4,0,2.7,0.2,3.8,0.7c1.1,0.4,2.1,1.1,2.8,1.9c0.8,0.8,1.4,1.8,1.7,2.9
				c0.4,1.1,0.6,2.4,0.6,3.9c0,2.1-0.4,3.9-1.3,5.3c-0.9,1.5-2.2,2.5-3.8,2.9l5.8,11.7h-6.9l-4.9-10.9h-2.9V67.7z M141.4,51.9
				c1.5,0,2.5-0.3,3.1-0.8c0.6-0.6,0.9-1.5,0.9-2.8V47c0-1.3-0.3-2.2-0.9-2.8c-0.6-0.6-1.6-0.8-3.1-0.8h-3.6v8.5H141.4z"/>
			<path class="st6" d="M156.8,67.7V38.4h11.3c1.4,0,2.7,0.2,3.8,0.7c1.1,0.4,2.1,1.1,2.8,1.9c0.8,0.8,1.4,1.8,1.7,2.9
				c0.4,1.1,0.6,2.4,0.6,3.9c0,1.4-0.2,2.7-0.6,3.9c-0.4,1.1-1,2.1-1.7,2.9c-0.8,0.8-1.7,1.4-2.8,1.9c-1.1,0.4-2.4,0.7-3.8,0.7h-5
				v10.7H156.8z M163.2,51.9h3.4c1.5,0,2.5-0.3,3.1-0.8c0.6-0.6,0.9-1.5,0.9-2.8V47c0-1.3-0.3-2.2-0.9-2.8c-0.6-0.6-1.6-0.8-3.1-0.8
				h-3.4V51.9z"/>
		</g>
		<g>
			<path class="st6" d="M68,189c0,3.9-1.3,6.8-4,8.7c-2.6,1.9-6.4,2.8-11.2,2.8c-4.8,0-8.5-0.9-11.2-2.8c-2.6-1.9-4-4.8-4-8.7
				c0-1.5,0.2-2.8,0.6-4c0.4-1.2,1-2.2,1.7-3c0.7-0.8,1.6-1.5,2.6-2.1c1-0.5,2.2-1,3.5-1.3l1.4,5.9c-0.7,0.2-1.3,0.4-1.9,0.6
				c-0.6,0.2-1.1,0.5-1.5,0.9s-0.7,0.8-1,1.3c-0.2,0.5-0.4,1.1-0.4,1.9c0,1.7,0.7,2.9,2,3.6c1.3,0.7,3.2,1.1,5.5,1.1h5.1
				c2.4,0,4.2-0.4,5.5-1.1c1.3-0.7,2-1.9,2-3.6c0-1.5-0.4-2.5-1.3-3.2c-0.9-0.7-2-1.1-3.4-1.4l1.4-5.9c1.3,0.3,2.5,0.7,3.5,1.3
				c1,0.5,1.9,1.2,2.7,2.1c0.7,0.8,1.3,1.8,1.7,3C67.8,186.2,68,187.5,68,189z"/>
			<path class="st6" d="M67.5,158.8l-7.1,1.8v8l7.1,1.8v6.4l-29.3-7.9V160l29.3-7.9V158.8z M44.2,164.5v0.3l11.1,2.9v-6L44.2,164.5z
				"/>
			<path class="st6" d="M68,138.6c0,3.9-1.3,6.8-4,8.7c-2.6,1.9-6.4,2.8-11.2,2.8c-4.8,0-8.5-0.9-11.2-2.8c-2.6-1.9-4-4.8-4-8.7
				c0-1.5,0.2-2.8,0.6-4c0.4-1.2,1-2.2,1.7-3c0.7-0.8,1.6-1.5,2.6-2.1c1-0.5,2.2-1,3.5-1.3l1.4,5.9c-0.7,0.2-1.3,0.4-1.9,0.6
				c-0.6,0.2-1.1,0.5-1.5,0.9s-0.7,0.8-1,1.3c-0.2,0.5-0.4,1.1-0.4,1.9c0,1.7,0.7,2.9,2,3.6c1.3,0.7,3.2,1.1,5.5,1.1h5.1
				c2.4,0,4.2-0.4,5.5-1.1c1.3-0.7,2-1.9,2-3.6c0-1.5-0.4-2.5-1.3-3.2c-0.9-0.7-2-1.1-3.4-1.4l1.4-5.9c1.3,0.3,2.5,0.7,3.5,1.3
				c1,0.5,1.9,1.2,2.7,2.1c0.7,0.8,1.3,1.8,1.7,3C67.8,135.8,68,137.1,68,138.6z"/>
			<path class="st6" d="M55.2,110.4v7.4h12.3v6.3H38.1v-6.3H50v-7.4H38.1v-6.3h29.3v6.3H55.2z"/>
			<path class="st6" d="M67.5,98.1H38.1V79.4h5.2v12.4H50v-12h5.2v12h7.1V79.4h5.2V98.1z"/>
		</g>
		<path class="st6" d="M308.7,200.8c1.7,0,3-1.3,3-3c0-1.7-1.3-3-3-3h-18.3v-35.8h18.3c1.7,0,3-1.3,3-3s-1.3-3-3-3h-18.3v-35.7h18.3
			c1.7,0,3-1.3,3-3c0-1.7-1.3-3-3-3h-18.3v-6.9c0-1.2-0.7-2.3-1.9-2.8l-14.5-5.8c-1.1-0.4-2.3-0.2-3.2,0.6l-6.8,6.4h-11.4L260,99
			c0.6-0.3,1-0.8,1.3-1.4l4-8.6l12.8-3.6c0.5-0.1,0.9-0.4,1.3-0.7l9.3-9.1h20c1.7,0,3-1.3,3-3s-1.3-3-3-3h-18.3V24.5
			c0-1.7-1.3-3-3-3h-44.9V3c0-1.7-1.3-3-3-3s-3,1.3-3,3v18.5h-35.8V3c0-1.7-1.3-3-3-3s-3,1.3-3,3v18.5h-35.8V3c0-1.7-1.3-3-3-3
			s-3,1.3-3,3v18.5h-35.8V3c0-1.7-1.3-3-3-3s-3,1.3-3,3v18.5H75.6V3c0-1.7-1.3-3-3-3s-3,1.3-3,3v18.5H44.2c-0.8,0-1.5,0.3-2.1,0.9
			l-20,19.8c-0.6,0.6-0.9,1.3-0.9,2.1v25.3H3c-1.7,0-3,1.3-3,3s1.3,3,3,3h18.3v35.8H3c-1.7,0-3,1.3-3,3c0,1.7,1.3,3,3,3h18.3v35.7H3
			c-1.7,0-3,1.3-3,3s1.3,3,3,3h18.3v35.8H3c-1.7,0-3,1.3-3,3c0,1.7,1.3,3,3,3h18.3v35.7H3c-1.7,0-3,1.3-3,3s1.3,3,3,3h18.3v22.3
			v22.8c0,1.7,1.3,3,3,3h45.3v18.3c0,1.7,1.3,3,3,3s3-1.3,3-3v-18.3h35.8v18.3c0,1.7,1.3,3,3,3s3-1.3,3-3v-18.3h35.8v18.3
			c0,1.7,1.3,3,3,3s3-1.3,3-3v-18.3h35.8v18.3c0,1.7,1.3,3,3,3s3-1.3,3-3v-18.3h35.8v18.3c0,1.7,1.3,3,3,3s3-1.3,3-3v-18.3h44.9
			c1.7,0,3-1.3,3-3v-45.1h18.3c1.7,0,3-1.3,3-3s-1.3-3-3-3h-18.3v-35.7H308.7z M27.3,258v-14.9l14.7,2.4l5.4,5.3h-11
			c-0.8,0-1.5,0.3-2,0.8L27.3,258z M284.5,284.7h-39.4l6.7-10.7c0.8-1.3,0.5-3-0.7-3.9l-12.2-9.7l-3.5-12.6c-0.3-1.2-1.3-2-2.5-2.2
			l-14-1.9l-10-10.4h21c1.7,0,3-1.3,3-3V81.9c0-1.7-1.3-3-3-3H81.7c-1.7,0-3,1.3-3,3v148.4c0,1.7,1.3,3,3,3h119l14.7,15.3
			c0.5,0.5,1.1,0.8,1.7,0.9l13,1.8l3.2,11.6c0.2,0.6,0.5,1.2,1,1.5l10.9,8.7l-7.3,11.6H27.3v-18.5l10.2-9.4h17.3
			c0.2,0,0.5,0,0.7-0.1c0,0,0.1,0,0.1,0c0.2-0.1,0.4-0.1,0.6-0.3c0,0,0.1,0,0.1-0.1c0.2-0.1,0.4-0.2,0.5-0.4c0,0,0-0.1,0.1-0.1
			c0.2-0.2,0.3-0.4,0.4-0.6c0,0,0,0,0,0l5.6-9.6h10.9c1.7,0,3-1.3,3-3c0-1.7-1.3-3-3-3H61.2c-1.1,0-2,0.6-2.6,1.5l-4.6,7.8l-8.7-8.4
			c-0.4-0.4-1-0.7-1.6-0.8L27.3,237V45.5l18.2-18h239v43.8l-8.7,8.5l-13.4,3.8c-0.8,0.2-1.5,0.8-1.9,1.6l-4.1,8.9l-17.1,9
			c-1.2,0.6-1.8,2-1.5,3.4c0.3,1.3,1.5,2.3,2.9,2.3h24.7c0.8,0,1.5-0.3,2-0.8l6.3-5.9l10.9,4.4V284.7z M191.9,171.2
			c-0.2-5.8-2.4-11.2-5.8-16.1c2.1,5.3,3.3,11.2,3,17.4c-0.6,11.9-6.9,22.3-18.1,30.3c-14,9.9-28.4,12.3-39.1,12.3
			c-9.4,0-15.8-1.9-16.4-2c-1.6-0.5-2.5-2.1-2-3.7c0.4-1.6,2-2.5,3.6-2.1c0.4,0.1,32.3,7.3,53.5-15.3c4-4.2,6.2-9.7,7.3-15.5
			c-2.3,5.2-5.6,10.3-10.2,14.4c-6.9,6.2-15.6,9.4-25.6,9.4c-2.8,0-5.7-0.2-8.6-0.8c-31.9-5.4-45.9-30.8-46.5-31.9
			c-0.8-1.4-0.3-3.2,1.1-4c1.4-0.8,3.2-0.4,4.1,1c0.2,0.3,17.7,28,48.6,27.1c5.8-0.2,11.2-2.4,16.1-5.7c-4.7,1.9-9.9,3-15.4,3
			c-0.7,0-1.3,0-2-0.1c-11.9-0.6-22.3-6.9-30.3-18.1c-18.7-26.3-10.6-54.3-10.3-55.4c0.5-1.6,2.1-2.5,3.7-2c1.6,0.4,2.5,2,2.1,3.6
			c-0.1,0.4-7.3,32.3,15.3,53.5c4.2,4,9.7,6.2,15.5,7.3c-5.2-2.3-10.3-5.6-14.4-10.2c-8-8.8-10.9-20.7-8.6-34.2
			c5.4-31.9,30.8-45.9,31.9-46.5c1.4-0.8,3.2-0.3,4,1.1c0.8,1.4,0.4,3.2-1,4.1c-0.3,0.2-28,17.7-27.1,48.6
			c0.2,5.8,2.4,11.2,5.8,16.1c-2.1-5.3-3.3-11.2-3-17.4c0.6-11.9,6.9-22.3,18.1-30.3c26.3-18.7,54.3-10.6,55.4-10.3
			c1.6,0.5,2.5,2.1,2,3.7c-0.4,1.6-2,2.5-3.6,2.1c-0.4-0.1-32.3-7.2-53.5,15.3c-4,4.2-6.2,9.7-7.3,15.5c2.3-5.2,5.6-10.3,10.2-14.4
			c8.8-8,20.7-10.9,34.2-8.6c31.9,5.4,45.9,30.8,46.5,31.9c0.8,1.4,0.3,3.2-1.1,4c-1.4,0.8-3.2,0.4-4.1-1c-0.1-0.1-2-3.2-5.7-7.2
			c0.2,1.1,0.3,2.2,0.3,3.3c0,1.7-1.3,3-3,3s-3-1.3-3-3c0-5.6-4.5-11.6-6.6-14c-7.9-5.3-18.2-9.6-30.8-9.3
			c-5.8,0.2-11.2,2.4-16.1,5.8c5.3-2.1,11.2-3.3,17.4-3c11.9,0.6,22.3,6.9,30.3,18.1c18.7,26.3,10.6,54.3,10.3,55.4
			c-0.4,1.3-1.6,2.1-2.9,2.1c-0.3,0-0.5,0-0.8-0.1c-1.6-0.4-2.5-2-2.1-3.6c0.1-0.3,7.3-32.3-15.3-53.5c-4.2-4-9.7-6.2-15.5-7.3
			c5.2,2.3,10.3,5.6,14.4,10.2c8,8.8,10.9,20.7,8.6,34.2c-5.4,31.9-30.8,45.9-31.9,46.5c-0.5,0.2-0.9,0.4-1.4,0.4
			c-1,0-2-0.5-2.6-1.5c-0.8-1.4-0.4-3.2,1-4.1C165.2,219.7,192.8,202.2,191.9,171.2z M96,195.3c-1.4-0.9-1.7-2.8-0.8-4.2
			c0.9-1.4,2.8-1.7,4.2-0.8c10.7,7.2,21.9,9,22,9c1.6,0.3,2.8,1.8,2.5,3.4c-0.2,1.5-1.5,2.5-3,2.5c-0.2,0-0.3,0-0.5,0
			C119.9,205.2,107.9,203.3,96,195.3z M102.9,105.1c0.1-0.2,2.4-5.6,6.5-11.1c1-1.3,2.9-1.6,4.2-0.6c1.3,1,1.6,2.9,0.6,4.2
			c-3.6,4.9-5.7,9.8-5.7,9.8c-0.5,1.1-1.6,1.8-2.8,1.8c-0.4,0-0.8-0.1-1.2-0.2C103,108.4,102.3,106.7,102.9,105.1z M208.3,106.2
			c0.8-1.4,2.6-1.9,4.1-1.1c0.2,0.1,4.3,2.4,8.2,5.8c1.3,1.1,1.4,3,0.3,4.2c-0.6,0.7-1.4,1-2.3,1c-0.7,0-1.4-0.2-2-0.7
			c-3.4-3-7.2-5.1-7.2-5.1C208,109.4,207.4,107.6,208.3,106.2z M208.6,207.7c0,0.1-1.1,3-3,5.8c-0.6,0.9-1.5,1.4-2.5,1.4
			c-0.6,0-1.1-0.2-1.6-0.5c-1.4-0.9-1.8-2.8-0.9-4.2c1.5-2.3,2.4-4.6,2.4-4.6c0.6-1.6,2.3-2.4,3.9-1.8
			C208.4,204.5,209.2,206.2,208.6,207.7z"/>
		<circle class="st6" cx="156.1" cy="156.1" r="22.3"/>
	</g>
</g>
</svg>
