<svg id="Layer_1" data-name="Layer 1" xmlns="http://www.w3.org/2000/svg" viewBox="0 0 2056.05 1998.87"><defs><style>.cls-1{fill:gray}.cls-3{fill:#f9b200}.cls-4{fill:#d68f00}.cls-5{fill:#332c28}.cls-8{fill:#fff}</style></defs><path id="safe_base" data-name="safe base" class="cls-1" d="M1321.65 1932.31H213.56l-103.11-101.54V901.94h1211.2v1030.37z"/><path id="safe_door" data-name="safe door" fill="#515151" d="M219.93 1031.95h974.51v726.62H219.93z"/><path id="head" class="cls-3" d="M986.2 904.1s148.42-55.57 195-153.38c0 0 56.58-107.11 5-231-43.81-105.32-131.2-218.57-237.85-287.1l-27.92 16.06s85-46.29 72.87-54.11S850.66 190 850.66 190s73.52-68.49 63.73-78.28c-9.14-9.15-144.66 52.84-144.66 52.84L851.17 21a8.85 8.85 0 00-2.29-9.22 9.59 9.59 0 00-13.24 0L672.56 147s-97.45 52.81-144.67 83.15C421.24 298.64 331 412.44 287.12 517.8c-51.54 123.85 5.05 231 5.05 231C338.71 846.62 485 896.34 485 896.34z" transform="translate(-15.48 -1.49)"/><g id="hands"><path class="cls-3" d="M39.47 1146.48c13-19.14 23.57-28.24 33-40.9 8.56-11.45 18.37-40.15 31.79-40.15 17.89 0 20.52 42.62 14.73 69.16 0 0 54-15.91 63.55-12.26 9.39 3.58 12.95 17 4.91 26.83s-24.26 28.73-24.26 28.73 25.08 12.23 37.18 18 10.45 29.28.28 31.13-43.31 10.98-43.31 10.98 20.1 25.51 25.52 34.21 5 23.67-7.89 25.91-40.69-8.72-40.69-8.72 7.36 14.89 10 25.39-4.82 15.9-12.1 18.5c-6.45 2.32-56.77 8-88.84-45.65s-13.66-126.77-3.87-141.16zM1423.17 1288.86c-29.29 53.69-75.26 48-81.15 45.66-6.65-2.61-13.45-8-11-18.5s9.13-25.4 9.13-25.4-25.43 11-37.17 8.73-12.15-17.22-7.21-25.92 23.31-34.2 23.31-34.2-30.3-9.09-39.59-10.94-10.79-25.37.26-31.14 34-18 34-18-14.82-18.86-22.16-28.73-4.08-23.26 4.49-26.83c8.75-3.65 58 12.25 58 12.25-5.28-26.53-2.88-69.15 13.46-69.15 12.25 0 21.21 28.7 29 40.15 8.64 12.65 18.29 21.76 30.17 40.89 8.92 14.41 25.75 87.44-3.54 141.13z" transform="translate(-15.48 -1.49)"/></g><g id="hinge"><rect class="cls-1" x="1162.29" y="1098.65" width="66.88" height="147.29" rx="14.66"/><rect class="cls-1" x="1161.43" y="1551.9" width="66.88" height="147.29" rx="14.66"/></g><g id="feet"><path class="cls-4" d="M535 1892.51l-1.42-66.65-3.58-104.14a16.72 16.72 0 00-8.07-13.92 16.07 16.07 0 00-15.84-.46l-27.5 14.47-30.51-39.81a16.12 16.12 0 00-15.13-6.28 16.28 16.28 0 00-12.95 10.22l-15 37-33.18-27.62a16 16 0 00-15.57-2.91 16.5 16.5 0 00-10.72 11.89l-13.18 54.81-35.73-17.87a16 16 0 00-17.1 1.68 16.81 16.81 0 00-6.25 16.33l5.6 31.67c2.18 8 3.49 15.82 2.29 23-3.09 12.34-26.32 12.27-31.92 13.6s-10.12 6.87-11.2 12.92a16.89 16.89 0 005.87 16.06l74.32 60.81 29.77 24.36 3.64 3c31.15 25.48 60.9 38.32 88.69 38.32a87.46 87.46 0 0014.58-1.21c29-4.88 49.7-23.8 62.58-40.09-.05-.02 18.12-20.34 17.51-49.18zM977.17 1947.59c12.88 16.29 33.58 35.21 62.58 40.1a88.32 88.32 0 0014.57 1.2c27.79 0 57.55-12.84 88.69-38.32l3.65-3 29.74-24.33 74.31-60.81a16.9 16.9 0 005.88-16.06c-1.08-6.05-5.6-11.58-11.2-12.92s-28.84-1.26-31.92-13.6c-1.21-7.21.11-15.06 2.29-23l5.6-31.68a16.81 16.81 0 00-6.25-16.33 16.06 16.06 0 00-17.11-1.68l-35.72 17.84-13.18-54.81a16.56 16.56 0 00-10.72-11.89 16.09 16.09 0 00-15.58 2.91l-33.18 27.62-15-37a16.33 16.33 0 00-12.94-10.18 16.12 16.12 0 00-15.13 6.28l-30.47 39.77-27.49-14.47a16.07 16.07 0 00-15.84.46 16.72 16.72 0 00-8.07 13.92L961 1831.78l-1.42 66.65c-.58 28.84 17.59 49.16 17.59 49.16z" transform="translate(-15.48 -1.49)"/></g><path id="tail" class="cls-4" d="M1337.13 1638c29.19-7.94 153.45-49.76 385.81-194s369.7-384.39 337.73-580.94-243.22-281.07-381.51-220.38-155 234.47-168.86 492.85-172.61 293.25-172.61 293.25z" transform="translate(-15.48 -1.49)"/><g id="peak"><path class="cls-5" d="M959.49 835.73s78.73-27.43 63-87.93c-9.16-35.12-168.11-72.74-173.5-85.8s-20.24-58.62-112.23-59.34c-92 .72-106.9 46.39-112.24 59.34S460.14 712.68 451 747.8c-15.78 60.5 58.87 86 58.87 86h5.19c-41 71-60.11 235.46-51.76 251.63 12.22 23.63 64 57.81 121.56 84.57 57.19 26.6 133.85 35.4 151.87 35.55 18-.15 94.67-9 151.87-35.55 57.55-26.76 109.33-60.94 121.55-84.57 8.28-16-10.38-177.67-50.65-249.69zM734.52 602.64h4.4zM737.18 1205.55z" transform="translate(-15.48 -1.49)"/></g><g id="lock"><circle class="cls-1" cx="392.11" cy="1454.63" r="133.18"/><circle cx="392.11" cy="1454.63" r="64.21" fill="#b3b3b3"/></g><g id="outlines"><path d="M650.42 1709.61h-.2a8.49 8.49 0 01-8.3-8.16l-11.22-289.86-13.1 202a8.51 8.51 0 01-8.4 8h-.09a8.5 8.5 0 01-8.46-7.78L586.52 1449l-11.19 73a8.5 8.5 0 01-16.85-.3l-8.05-68.7-1.46 10.6a8.5 8.5 0 01-16.84-2.31l10.55-76.84a8.5 8.5 0 0116.86.17l8.51 72.73 12.45-81.22a8.5 8.5 0 0116.87.56l10.57 123.21 16.42-253.16a8.51 8.51 0 018.48-8h.16a8.51 8.51 0 018.39 8.17l12.19 314.88L678 1269.08a8.5 8.5 0 018.43-7.79 8.49 8.49 0 018.46 7.71l17.72 191.68 9.58-34.37a8.5 8.5 0 018.18-6.22h.25a8.5 8.5 0 018.06 6.69l9.94 45.68 19-36.55a8.5 8.5 0 0115.79 1.91l7.44 30.34 6.22-16.9a8.49 8.49 0 018-5.56 8.49 8.49 0 018 5.62l5.66 15.73 13.51-20.6a8.51 8.51 0 0115 1.57l.91 2.34 19.64-161.12a8.5 8.5 0 0116.94.81l5.32 202.59 43.69-297.87a8.5 8.5 0 0116.9.79l19.21 361.85 26.25-252.65a8.5 8.5 0 0116.93.23l13.09 170.44 6.89-65.17a8.5 8.5 0 0116.39-2.16l17.61 45.7 12.8-50.86a8.5 8.5 0 0116.44-.19l10.81 39.16 17.35-34.57a8.5 8.5 0 0115.66 1.15l11.08 33.49 9.07-28.61a8.5 8.5 0 0114.22-3.34l38.79 40.15a8.5 8.5 0 01-12.23 11.81l-28.88-29.89-12.69 40a8.49 8.49 0 01-8 5.93 8.5 8.5 0 01-8.07-5.83l-12.87-38.9-18 36a8.5 8.5 0 01-15.79-1.55l-8.12-29.4-11.48 45.6a8.5 8.5 0 01-16.17 1l-14.58-37.81-13 122.74a8.51 8.51 0 01-8.46 7.6h-.12a8.5 8.5 0 01-8.35-7.85l-13-169.48L975.63 1667a8.5 8.5 0 01-16.94-.43l-20.44-384.89-45.63 311.1a8.5 8.5 0 01-16.9-1l-4.9-186.26L861 1486a8.5 8.5 0 01-16.36 2.06l-7.19-18.45-13.81 21a8.5 8.5 0 01-15.11-1.78l-3.51-9.77-7.77 21.09a8.49 8.49 0 01-16.23-.91l-8.69-35.46-19.46 37.37A8.5 8.5 0 01737 1499l-7.65-35.13-12.77 45.85a8.5 8.5 0 01-16.65-1.5l-13.08-141.52-28 335.07a8.5 8.5 0 01-8.43 7.84z" transform="translate(-15.48 -1.49)" fill="#2ad1c7"/><path d="M2069.23 881.39v-.23q-1-8.76-2.38-17.38c-7.65-47-25.5-89.69-53.05-126.72-25.34-34.07-57.67-61.93-96.07-82.82a307.89 307.89 0 00-123.41-36.54c-43-3.17-84.81 3.5-120.78 19.28-67.12 29.46-110.29 85.95-135.85 177.8-23.78 85.43-31.32 196.54-38.08 322.38-7 130.06-51.83 200.73-88.2 237.12-27 27-53.4 39.63-67.43 44.94v-74.74a62.54 62.54 0 008 .49c19.71 0 53.92-8.29 77.44-51.4 16.85-30.88 18.61-65.93 17.13-89.9-1.7-27.36-8.25-50.78-13.84-59.78a257.47 257.47 0 00-19.9-27.45c-3.71-4.62-7.22-9-10.48-13.75a119 119 0 01-6.72-12.52c-7.23-14.69-15.43-31.34-29.33-31.34-3.84 0-9.44 1.25-14.3 7.17-3.79 4.62-6.35 11.34-8 19V903.43a8.5 8.5 0 00-8.5-8.5h-303.31c12.23-6.09 26.42-13.7 41.37-22.8 58.34-35.5 98.08-74.8 118.12-116.83 1.36-2.6 15-29.53 22.61-71.31 7.24-39.68 10.11-100.82-17.31-166.7-22.61-54.35-56-109.5-96.62-159.49-39.9-49.12-85.76-91.8-133.29-124.14 35.38-22.29 38.6-29.94 38.82-35.84a10.91 10.91 0 00-5.07-9.62c-3.38-2.18-9.68-6.23-80.44-6.57-16.6-.08-32.94.08-45.33.25 5.13-5.07 11-11 16.89-17.18 30.43-32 34.65-43 34.76-49.46a11.92 11.92 0 00-3.38-8.75c-5.1-5.1-13.95-4.51-35.09 2.32-12.58 4.07-29.37 10.4-49.9 18.82-16.5 6.76-32.85 13.82-45.51 19.39L861.46 26a8.24 8.24 0 00.66-1.49 17.45 17.45 0 00-4.44-18 18.16 18.16 0 00-24.78-.24L670.67 140.66c-9.11 5-99.7 54.3-144.48 83.07-51.83 33.27-102.28 78.88-145.91 131.79-41.76 50.66-75.69 105.91-98.12 159.8-27.41 65.89-24.54 127-17.31 166.71 7.62 41.77 21.25 68.7 22.61 71.31 20.07 42.1 59.51 80.47 117.21 114a523.81 523.81 0 0054.63 27.55h-335a8.5 8.5 0 00-8.5 8.5v159a19.09 19.09 0 00-12.73-4.86c-14.51 0-23.41 16.5-31.25 31a117 117 0 01-7.35 12.51c-3.57 4.76-7.41 9.13-11.49 13.75a260.31 260.31 0 00-21.77 27.45c-6.15 9-13.35 32.56-15.22 60-1.64 24.06.3 59.24 18.81 90.23 24.51 41 59.46 50.34 81 51.08v488.58a8.48 8.48 0 002.54 6.06l103.1 101.54a8.47 8.47 0 006 2.44h105.03l14.53 11.9c32.64 26.7 64.3 40.24 94.08 40.24a96.44 96.44 0 0016-1.32c32-5.39 54.46-26.34 67.71-43a70.74 70.74 0 005.69-7.78h431.77a79.06 79.06 0 009.18 13.7c13.24 16.7 35.7 37.65 67.7 43a96.65 96.65 0 0016 1.32c29.78 0 61.43-13.54 94.07-40.24l21.78-17.82h164.48a8.5 8.5 0 008.5-8.5v-287.39c34.56-10.42 155.86-53.1 381.24-193a843.1 843.1 0 00156.87-125.23c45.26-46.08 83.62-96.07 114-148.58s51.9-106 64.06-159c11-48.11 14.05-94.81 9.1-139.08zm-26.87-48.93a278.53 278.53 0 00-61.42-62.33 336.35 336.35 0 00-41.73-26.41 728.6 728.6 0 00-28-73.62c65.35 36.06 110.98 92.9 131.15 162.36zm-144.63 2.23c-12-4.31-23.68-8-34.83-11a720.3 720.3 0 00-26.78-101.29c9.16 2.34 18.61 5 28.23 8.14A411 411 0 011925 755.3a667.1 667.1 0 0122.73 101.18 396.71 396.71 0 00-50-21.79zm52.61 42.73a642.83 642.83 0 012.29 117.05 266.29 266.29 0 00-50.89-32.32 294.83 294.83 0 00-27.22-11.67q.07-21.91-1.28-43.81-2-32.24-7.12-64.4c8.53 2.5 17.33 5.34 26.24 8.55a364.2 364.2 0 0157.98 26.6zM1887 658.17a718.12 718.12 0 0130.69 74.83 437.89 437.89 0 00-48.57-18.82c-13.8-4.43-27.2-8.06-39.89-11q-12.75-34.14-29-67.82a289.47 289.47 0 0186.77 22.81zM412.93 852.52c-37.54-21.88-87.12-58.13-110.19-106.63-.05-.11-.1-.21-.16-.32s-13.58-26.08-21-66.57c-6.83-37.43-9.54-95.07 16.28-157.13 46-110.45 137-219.2 237.52-283.81 46.41-29.83 143.16-82.31 144.13-82.83a8.68 8.68 0 001.37-.93L844 19.16c.17-.14.33-.29.49-.44a1.09 1.09 0 011.42 0 .47.47 0 01.11.13l-80.75 142.3a8.5 8.5 0 0010.93 11.92c.31-.14 30.93-14.13 63.55-27.64 38.88-16.09 57.7-22.05 66.68-24.2-3.67 5.64-11.39 15.63-27.64 32.65-15.46 16.19-30.84 30.54-31 30.68a8.5 8.5 0 006 14.72c51.71-1.29 108.78-.87 130.28 1.78-7.31 6.16-21.19 15.4-36.74 24.81l-.3.16-27.93 16.06a8.5 8.5 0 008.3 14.83c.14-.07 10.65-5.8 23.67-13.51 96.59 63.55 184.51 170.52 230.21 280.41 25.72 61.8 23.12 119.22 16.4 156.5-7.32 40.65-21 66.95-21.12 67.21l-.16.32c-39.65 83.33-158.53 136.07-185 147-5.53-18.27-12.19-36.59-20-52.4a147 147 0 0030.94-19c25.94-21.13 35.77-47.2 28.42-75.39-6.38-24.48-58-44.58-124.82-68.31-19.79-7-44.26-15.73-49.49-19.68l-.15-.38C850.07 644.3 831.45 598 739 596.56h-4.41c-92.51 1.44-111.14 47.74-117.32 63.11l-.15.38c-5.23 4-29.7 12.64-49.5 19.68-66.81 23.73-118.43 43.83-124.81 68.27-7.34 28.15 1.75 53.86 26.3 74.34a134.48 134.48 0 0033.12 19.9 326.46 326.46 0 00-17.6 44.59 503.82 503.82 0 01-71.7-34.31zm323.83-114.46h-2.52v.08c-15.67.76-51.19 6-88.3 15.41-38.31 9.75-90.14 27-119.54 54a95.63 95.63 0 00-15.86 19.79 118.48 118.48 0 01-30.87-18.26c-19.15-16.14-26-35.22-20.41-56.72.84-3.21 6.3-12.3 38.93-27.43 22.69-10.53 50.55-20.42 75.13-29.15 45.08-16 55.94-20.53 59.07-28.12.2-.49.42-1 .65-1.62 5.73-14.23 20.85-51.81 103.72-52.47 82.88.66 98 38.24 103.72 52.47l.66 1.62c3.13 7.59 14 12.1 59.07 28.12 24.58 8.73 52.44 18.62 75.12 29.15 32.64 15.13 38.1 24.22 38.94 27.43 5.6 21.47-1.94 40.86-22.39 57.66a130.79 130.79 0 01-28.79 17.49 96 96 0 00-16-20c-29.4-26.94-81.24-44.21-119.54-54-37.11-9.44-72.64-14.65-88.31-15.41v-.08c-.68-.02-1.53-.02-2.48.04zm-198.88 82c26.8-24.56 75.84-40.75 112.25-50 38.76-9.86 75-14.73 86.63-15 11.64.26 47.88 5.13 86.63 15 36.42 9.27 85.46 25.46 112.25 50 1.05 1 2.09 2 3.13 3.14a74.93 74.93 0 015.89 7.26 123.69 123.69 0 017.49 11.9q2.07 3.71 4.11 7.83c12.93 26.17 24.79 64.65 34.11 111.62 13 65.71 14.9 115 12.21 122.19-10.56 20.24-58.85 53.39-117.53 80.67-55.52 25.82-131.61 34.59-148.29 34.76-16.67-.17-92.76-8.94-148.28-34.76-58.68-27.28-107-60.43-117.53-80.67-2.69-7.14-.83-56.48 12.21-122.19 14.12-71.15 34.06-122.81 54.72-141.75zm-440 503.68c-19.93-5.87-36.27-19.28-48.57-39.87-30.29-50.72-12.28-120-4.13-132a241.67 241.67 0 0120.47-25.77c4.3-4.89 8.37-9.5 12.34-14.81 2.92-3.9 5.73-9.11 8.7-14.62 3.24-6 6.6-12.24 10.11-16.79 3.24-4.21 5.41-5.33 6.18-5.33.37 0 1.14 0 2.43 1.6 6.79 8.42 8.69 35.7 4 57.24a8.51 8.51 0 0010.71 10c23.41-6.9 52.26-13.48 58.31-12.4a6.36 6.36 0 013.4 4.34 10.24 10.24 0 01-2.24 9.11c-7.87 9.67-24 28.37-24.11 28.55a8.51 8.51 0 002.71 13.19c.26.12 25.25 12.31 37.25 18 2.13 1 3.23 4.17 3.54 6.78.51 4.32-.78 7.54-1.52 8.38-10.8 2-42.33 10.67-43.68 11a8.5 8.5 0 00-4.43 13.46c5.51 7 20.74 26.63 25 33.44 2 3.19 2.58 7.86 1.35 10.62-.46 1-1.2 2-3.48 2.42-7.22 1.25-25.47-4.07-36.12-8.26a8.51 8.51 0 00-10.74 11.68c.07.14 7 14.21 9.37 23.69.52 2.07 1.39 5.53-6.68 8.42-1.79.64-14.28 2.61-30.14-2.07zm132.93 601.55l-98.09-96.6v-486.48c.38-.11.72-.22 1-.32 14.15-5.08 20.69-15.76 17.47-28.57a94.82 94.82 0 00-3-9.33c9 2.46 19.45 4.39 26.88 3.1a20.94 20.94 0 0016.08-12.23c3.52-7.88 2.55-18.55-2.44-26.55-3.36-5.4-11.79-16.56-18.16-24.83 10.39-2.76 24.48-6.4 30.3-7.46 7.85-1.43 13.56-8.61 14.91-18.73 1.38-10.4-2.12-23.23-13.06-28.44-7.11-3.39-18.85-9.08-27.22-13.15 5.39-6.32 12.61-14.84 17.25-20.54a27.43 27.43 0 005.47-24.25 23 23 0 00-14-15.89c-4.39-1.67-12.31-2.29-40.37 4.44-3.91.94-7.7 1.9-11.2 2.81V911.93h344.64c-4.78 17.8-8.48 34.78-11.17 48.48-4.3 22-7.79 44.5-10.11 65.15H235.4a8.5 8.5 0 00-8.5 8.5v726.62a8.51 8.51 0 008.5 8.5h31.24l4.63 26.18c.05.25.1.5.17.76 2.2 8 2.9 14.08 2.18 19-1 2.74-7.63 4.86-19.72 6.29a56 56 0 00-5.86.88c-8.79 2.1-15.87 10-17.6 19.7a25.42 25.42 0 008.87 24.13l72.38 59.22zm281 13.67l-.33.4c-11.37 14.38-30.55 32.48-57.32 37a78.78 78.78 0 01-13.16 1.09c-25.76 0-53.79-12.24-83.31-36.4l-107.7-88.12a8.4 8.4 0 01-2.89-8c.57-3.23 2.94-5.71 4.8-6.15.6-.14 2.44-.36 3.92-.54 10.61-1.26 30.36-3.6 34.28-19.27.06-.22.1-.44.14-.66 1.24-7.47.51-15.6-2.37-26.29l-5.54-31.31a8.37 8.37 0 013.07-8.11 7.51 7.51 0 018.12-.8l35.72 17.86a8.5 8.5 0 0012.07-5.61l13.17-54.82a8.11 8.11 0 015.21-5.83 7.52 7.52 0 017.39 1.4l33.18 27.62a8.49 8.49 0 0013.31-3.33l15-37a7.78 7.78 0 016.22-5 7.62 7.62 0 017.23 3l30.46 39.77a8.49 8.49 0 0010.7 2.35l27.5-14.46a7.5 7.5 0 017.5.22 8.27 8.27 0 014 6.93l3.62 104.08 1.42 66.59c.6 25.03-15.22 43.23-15.33 43.43zm443.32-13.67H539a80.2 80.2 0 005.29-30l-1.42-66.65v-.11l-2.06-59.35h414.8l-2.28 65.27v.11l-1.42 66.65a78.93 78.93 0 003.3 24.08zm1.75-195l-.76 21.88h-416l-1-27.75a25.19 25.19 0 00-12.19-21 24.51 24.51 0 00-24.18-.69l-21.14 11.13-26.11-34.08a24.75 24.75 0 00-42.7 5.87l-10.64 26.22-24.16-20.14a24.51 24.51 0 00-23.76-4.41 25 25 0 00-16.24 17.94l-10.67 44.41-26.16-13.08a24.5 24.5 0 00-26.1 2.55 25.15 25.15 0 00-8.84 13H243.9v-709.58h210.4c0 .26-.05.54-.07.81-3.24 39 .37 46 1.56 48.34 15.07 29.16 77 65.83 125.52 88.38 58.43 27.17 136.07 36 155 36.33h.93c18.92-.29 96.56-9.16 155-36.33 48.48-22.55 110.44-59.22 125.52-88.38 1.19-2.3 4.8-9.3 1.56-48.34 0-.27 0-.55-.07-.81h182.18v52.51H1192a23.18 23.18 0 00-23.15 23.16v118a23.17 23.17 0 0023.15 23.15h9.42v289h-10.28a23.18 23.18 0 00-23.15 23.16v118a23.17 23.17 0 0023.15 23.15h10.28v27.72a25.5 25.5 0 00-6.42 2.18l-26.15 13.09-10.68-44.42a25 25 0 00-16.24-17.94 24.51 24.51 0 00-23.76 4.41l-24.24 20.19-10.65-26.22a24.75 24.75 0 00-42.7-5.87l-26.1 34.08-21.15-11.13a24.48 24.48 0 00-24.18.7A25.13 25.13 0 00957 1730.3zm272.6-618.23a6.16 6.16 0 016.15 6.16v118a6.16 6.16 0 01-6.15 6.15H1192a6.16 6.16 0 01-6.15-6.15v-118a6.16 6.16 0 016.15-6.16zm-.86 453.25a6.16 6.16 0 016.15 6.16v118a6.16 6.16 0 01-6.15 6.15h-37.57a6.16 6.16 0 01-6.15-6.15v-118a6.16 6.16 0 016.15-6.16zM1138.43 1947c-29.53 24.16-57.56 36.4-83.31 36.4a78.78 78.78 0 01-13.16-1.09c-26.78-4.5-46-22.6-57.33-37l-.33-.4c-.16-.17-15.93-18.11-15.39-43.31l1.41-66.59 3.68-104.16a8.24 8.24 0 013.95-6.88 7.48 7.48 0 017.5-.22l27.5 14.46a8.5 8.5 0 0010.71-2.35l30.46-39.77a7.59 7.59 0 017.21-3 7.79 7.79 0 016.24 5l15 37a8.5 8.5 0 0013.32 3.33l33.18-27.62a7.5 7.5 0 017.38-1.39 8 8 0 015.21 5.82l13.18 54.82a8.49 8.49 0 0012.06 5.61l35.73-17.86a7.51 7.51 0 018.11.8 8.34 8.34 0 013.07 8.12l-5.53 31.3c-2.89 10.7-3.62 18.82-2.37 26.29 0 .22.08.44.13.66 3.92 15.67 23.67 18 34.28 19.28 1.48.17 3.33.39 3.92.53 1.86.45 4.23 2.92 4.81 6.15a8.4 8.4 0 01-2.9 8zM1327 1430.84l-.56 209.18a8.52 8.52 0 00.56 3v282.25h-135.26l65.15-53.3a25.41 25.41 0 008.86-24.13c-1.73-9.68-8.8-17.6-17.6-19.7a56.17 56.17 0 00-5.85-.88c-12.09-1.43-18.72-3.55-19.72-6.29-.72-4.87 0-10.91 2.17-19a6.74 6.74 0 00.17-.75l5.6-31.68a25.29 25.29 0 00-9.43-24.54 24.6 24.6 0 00-2.68-1.8v-30.65h10.29a23.17 23.17 0 0023.15-23.15v-118a23.18 23.18 0 00-23.15-23.16h-10.29v-289h11.15a23.17 23.17 0 0023.15-23.15v-118a23.18 23.18 0 00-23.15-23.16h-11.15v-61a8.49 8.49 0 00-8.5-8.5h-192.37c-2.33-20.65-5.81-43.19-10.12-65.15-2.68-13.7-6.39-30.68-11.17-48.48H1327v208.4c-24.24-6.22-31.43-5.52-35.52-3.82-6.19 2.59-10.86 8.14-12.81 15.25a28.72 28.72 0 004.76 24.5c4.32 5.82 11.1 14.57 16 20.93-7.64 4.07-18.43 9.79-25 13.19-10.36 5.4-13.48 18.42-12 28.92 1.41 9.86 6.64 16.62 14 18.09 5.25 1 18 4.64 27.42 7.39-5.85 8.31-13.75 19.73-16.87 25.21-4.7 8.27-5.42 19.1-1.8 27a20 20 0 0014.81 11.52c6.69 1.27 15.87-.46 24-2.79-1.06 3.12-2 6.3-2.68 9.21-1.92 8.38.14 15.85 5.55 21.44zm16.5-103.76c-6.77-2.81-6-6.24-5.48-8.53 2.19-9.54 8.53-23.66 8.59-23.8a8.5 8.5 0 00-11.11-11.3c-9.29 4-26 9.36-32.21 8.18a3.08 3.08 0 01-2.55-2c-1.33-2.86-.81-8 1.14-11.41 4.67-8.2 22.64-33.19 22.82-33.44a8.5 8.5 0 00-4.46-13.11c-1.22-.37-29.35-8.79-39.62-11-.85-1.27-1.86-5-1.22-9.3.46-3 1.63-5.4 3-6.12 11-5.71 33.79-17.91 34-18a8.49 8.49 0 002.68-12.75c-.15-.19-14.83-18.88-22-28.55a11.56 11.56 0 01-2-9.85 6.23 6.23 0 012.68-3.93c5.93-.81 31.68 5.67 52.44 12.37a8.5 8.5 0 0010.95-9.75c-4.39-22-2.46-50.22 4-58 .36-.44.88-1 1.06-1 0 0 1.92.49 5.58 6a147.57 147.57 0 018.6 15.88 125.86 125.86 0 007.94 14.6c3.62 5.31 7.34 9.93 11.27 14.81a240.6 240.6 0 0118.7 25.77c7.48 12.05 24 81.64-3.77 132.57-27.24 49.92-68.15 42.34-70.47 41.84v-.37zm372.77 111.79c-214 132.84-335.08 177.62-372.27 189.57v-191.16c13.51-4.36 45.5-17.35 78.58-50.11 24.83-24.59 45.19-55.35 60.52-91.4 19-44.72 30.28-97.77 33.5-157.7 14.18-263.59 32.28-427.81 163.79-485.52 30.46-13.37 65-19.42 100.39-18.43a6.58 6.58 0 00.36.82q16.11 32.43 28.29 64c-44.07-8.54-75.64-9-77.48-9a8.5 8.5 0 00-.16 17c.47 0 36.45.52 84.68 10.82a706 706 0 0128 101.17c-39.67-9.41-68.67-11.45-70.36-11.56a8.5 8.5 0 00-1.13 17c.43 0 32.51 2.31 74.86 13a669.58 669.58 0 019.41 107.34c-24.93-7.59-42.34-9.35-43.43-9.46a8.5 8.5 0 00-1.62 16.93c.26 0 18.84 1.91 44.91 10.33a667.94 667.94 0 01-24 164.45c-34.15 123.22-92.79 199.85-93.38 200.61a8.5 8.5 0 0013.44 10.42c2.47-3.19 61-79.54 96.12-205.77a686.45 686.45 0 0025-163.57 278.1 278.1 0 0120.06 8.84 246.91 246.91 0 0156.53 37.7c-1.36 12.91-3 25.09-4.94 36.48-16.53 99.37-51.68 161.67-52 162.28a8.5 8.5 0 0014.75 8.46c1.5-2.61 36.82-65 53.93-167.19q2.07-12.39 3.65-24.84 30.93 33.79 46.6 79.58c-54.51 124.09-159.04 243.51-296.65 328.91zm306-351.88a237.2 237.2 0 00-49-73.83c-1.51-1.54-3.06-3.06-4.62-4.57a653.15 653.15 0 00.21-119.64c34 23.12 64.75 55 80.24 98.81.07.22.18.42.27.63a490.74 490.74 0 01-27.19 98.61zm31.11-131.58c-13.66-25.66-33.17-48.61-58.26-68.48a288.21 288.21 0 00-28.57-19.83 674.54 674.54 0 00-20.21-100c49.14 29.65 84.73 68.92 106.23 117.39a374.18 374.18 0 01.72 70.92z" transform="translate(-15.48 -1.49)"/><path d="M538.69 1402.46a141.71 141.71 0 00-131.1-88c-78.13 0-141.68 63.55-141.68 141.68s63.55 141.68 141.68 141.68 141.68-63.56 141.68-141.68c0-.6.11-2.8.11-2.8-.04-.79-.77-26.59-10.69-50.88zm-40-31.37a124.27 124.27 0 0133 73.46h-52.33a72.42 72.42 0 00-17.22-36.42l35.12-35.13a8.38 8.38 0 001.43-1.91zm-84.32-39.47a124.11 124.11 0 0172.32 28.2 8.29 8.29 0 00-1.45 1.16l-35.76 35.77a72.21 72.21 0 00-35.11-13zm-17 .24v52.28a72.4 72.4 0 00-34.8 14.94l-36.89-36.89a124.17 124.17 0 0171.69-30.33zm-83.71 42.35l36.89 36.89a72.39 72.39 0 00-14.74 33.45h-52.36a124.14 124.14 0 0130.21-70.34zM283 1461.55h52.1a72.26 72.26 0 0010.14 31.93l-37.38 37.38a124 124 0 01-24.86-69.31zm36 82.21l36.74-36.76a72.57 72.57 0 0042 21.12l.26 52.29a124.33 124.33 0 01-79-36.65zm32.88-87.64a55.71 55.71 0 1155.71 55.7 55.77 55.77 0 01-55.71-55.7zM415 1580.57l-.26-52.1a72.43 72.43 0 0040.47-17.47l36.79 36.8a124.23 124.23 0 01-77 32.77zm88.68-45.13l-37-37a72.24 72.24 0 0013.4-36.85h51.42a8.39 8.39 0 00.55 1.83 124.12 124.12 0 01-28.35 72.02zM658.61 985.44a5 5 0 00-3.15-.54 4.75 4.75 0 00-4 5.42c1.6 9.43 4.69 23.61 9.61 30.51 7.73 10.9 19.39 16 26 11.67s5.78-16.85-2-27.72c-4.89-6.94-17.77-14.65-26.46-19.34zM818.88 984.9a5 5 0 00-3.15.54c-8.7 4.69-21.57 12.4-26.5 19.34-7.73 10.87-8.62 23.34-2 27.72s18.31-.77 26-11.67c4.92-6.9 8-21.08 9.62-30.51a4.75 4.75 0 00-3.97-5.42z" transform="translate(-15.48 -1.49)"/><ellipse cx="538.92" cy="533.74" rx="50.58" ry="67.19"/><ellipse cx="904.46" cy="533.74" rx="50.58" ry="67.19"/></g><g id="eyes_shine" data-name="eyes shine"><circle class="cls-8" cx="548.93" cy="511.55" r="24.32"/><circle class="cls-8" cx="895.96" cy="511.55" r="24.32"/></g></svg>